ffmpeg version 7.0-essentials_build-www.gyan.dev Copyright (c) 2000-2024 the FFmpeg developers
  built with gcc 13.2.0 (Rev5, Built by MSYS2 project)
  configuration: --enable-gpl --enable-version3 --enable-static --disable-w32threads --disable-autodetect --enable-fontconfig --enable-iconv --enable-gnutls --enable-libxml2 --enable-gmp --enable-bzlib --enable-lzma --enable-zlib --enable-libsrt --enable-libssh --enable-libzmq --enable-avisynth --enable-sdl2 --enable-libwebp --enable-libx264 --enable-libx265 --enable-libxvid --enable-libaom --enable-libopenjpeg --enable-libvpx --enable-mediafoundation --enable-libass --enable-libfreetype --enable-libfribidi --enable-libharfbuzz --enable-libvidstab --enable-libvmaf --enable-libzimg --enable-amf --enable-cuda-llvm --enable-cuvid --enable-dxva2 --enable-d3d11va --enable-d3d12va --enable-ffnvcodec --enable-libvpl --enable-nvdec --enable-nvenc --enable-vaapi --enable-libgme --enable-libopenmpt --enable-libopencore-amrwb --enable-libmp3lame --enable-libtheora --enable-libvo-amrwbenc --enable-libgsm --enable-libopencore-amrnb --enable-libopus --enable-libspeex --enable-libvorbis --enable-librubberband
  libavutil      59.  8.100 / 59.  8.100
  libavcodec     61.  3.100 / 61.  3.100
  libavformat    61.  1.100 / 61.  1.100
  libavdevice    61.  1.100 / 61.  1.100
  libavfilter    10.  1.100 / 10.  1.100
  libswscale      8.  1.100 /  8.  1.100
  libswresample   5.  1.100 /  5.  1.100
  libpostproc    58.  1.100 / 58.  1.100
Input #0, image2, from 'C:\Users\thuan\AppData\Local\Temp\temp-image11041173817201215855.jpg':
  Duration: 00:00:00.04, start: 0.000000, bitrate: 6912 kb/s
  Stream #0:0: Video: mjpeg (Baseline), yuvj420p(pc, bt470bg/unknown/unknown), 720x1280 [SAR 1:1 DAR 9:16], 25 fps, 25 tbr, 25 tbn
[mp3 @ 000001a6cfd1c800] Estimating duration from bitrate, this may be inaccurate
Input #1, mp3, from 'C:\Users\thuan\AppData\Local\Temp\temp-audio10208156025064645598.mp3':
  Duration: 00:02:13.38, start: 0.000000, bitrate: 255 kb/s
  Stream #1:0: Audio: mp3 (mp3float), 44100 Hz, stereo, fltp, 256 kb/s
Stream mapping:
  Stream #0:0 -> #0:0 (mjpeg (native) -> h264 (libx264))
  Stream #1:0 -> #0:1 (mp3 (mp3float) -> aac (native))
Press [q] to stop, [?] for help
[libx264 @ 000001a6d0189400] using SAR=1/1
[libx264 @ 000001a6d0189400] using cpu capabilities: MMX2 SSE2Fast SSSE3 SSE4.2 AVX FMA3 BMI2 AVX2 AVX512
[libx264 @ 000001a6d0189400] profile High, level 3.1, 4:2:0, 8-bit
[libx264 @ 000001a6d0189400] 264 - core 164 r3190 7ed753b - H.264/MPEG-4 AVC codec - Copyleft 2003-2024 - http://www.videolan.org/x264.html - options: cabac=1 ref=3 deblock=1:0:0 analyse=0x3:0x113 me=hex subme=7 psy=1 psy_rd=1.00:0.00 mixed_ref=1 me_range=16 chroma_me=1 trellis=1 8x8dct=1 cqm=0 deadzone=21,11 fast_pskip=1 chroma_qp_offset=-2 threads=12 lookahead_threads=2 sliced_threads=0 nr=0 decimate=1 interlaced=0 bluray_compat=0 constrained_intra=0 bframes=3 b_pyramid=2 b_adapt=1 b_bias=0 direct=1 weightb=1 open_gop=0 weightp=2 keyint=250 keyint_min=25 scenecut=40 intra_refresh=0 rc_lookahead=40 rc=crf mbtree=1 crf=23.0 qcomp=0.60 qpmin=0 qpmax=69 qpstep=4 ip_ratio=1.40 aq=1:1.00
Output #0, mp4, to 'C:\Users\thuan\AppData\Local\Temp\output-video5081132161991737939.mp4':
  Metadata:
    encoder         : Lavf61.1.100
  Stream #0:0: Video: h264 (avc1 / 0x31637661), yuvj420p(pc, bt470bg/unknown/unknown, progressive), 720x1280 [SAR 1:1 DAR 9:16], q=2-31, 25 fps, 12800 tbn
      Metadata:
        encoder         : Lavc61.3.100 libx264
      Side data:
        cpb: bitrate max/min/avg: 0/0/0 buffer size: 0 vbv_delay: N/A
  Stream #0:1: Audio: aac (LC) (mp4a / 0x6134706D), 44100 Hz, stereo, fltp, 192 kb/s
      Metadata:
        encoder         : Lavc61.3.100 aac
frame=   33 fps=0.0 q=28.0 size=       0KiB time=00:00:01.24 bitrate=   0.3kbits/s speed=2.43x    frame=  119 fps=115 q=28.0 size=       0KiB time=00:00:04.68 bitrate=   0.1kbits/s speed=4.53x    frame=  302 fps=196 q=28.0 size=     256KiB time=00:00:12.00 bitrate= 174.8kbits/s speed= 7.8x    frame=  492 fps=239 q=28.0 size=     512KiB time=00:00:19.60 bitrate= 214.0kbits/s speed=9.54x    frame=  679 fps=263 q=28.0 size=     768KiB time=00:00:27.08 bitrate= 232.3kbits/s speed=10.5x    frame=  863 fps=279 q=28.0 size=    1024KiB time=00:00:34.29 bitrate= 244.6kbits/s speed=11.1x    frame= 1039 fps=288 q=28.0 size=    1024KiB time=00:00:41.42 bitrate= 202.5kbits/s speed=11.5x    frame= 1204 fps=292 q=28.0 size=    1280KiB time=00:00:47.97 bitrate= 218.6kbits/s speed=11.6x    frame= 1373 fps=296 q=28.0 size=    1536KiB time=00:00:54.77 bitrate= 229.7kbits/s speed=11.8x    frame= 1539 fps=299 q=28.0 size=    1792KiB time=00:01:01.25 bitrate= 239.7kbits/s speed=11.9x    frame= 1711 fps=302 q=28.0 size=    1792KiB time=00:01:08.36 bitrate= 214.8kbits/s speed=12.1x    frame= 1871 fps=303 q=28.0 size=    2048KiB time=00:01:14.76 bitrate= 224.4kbits/s speed=12.1x    frame= 2029 fps=303 q=28.0 size=    2304KiB time=00:01:21.08 bitrate= 232.8kbits/s speed=12.1x    frame= 2189 fps=303 q=28.0 size=    2560KiB time=00:01:27.48 bitrate= 239.7kbits/s speed=12.1x    frame= 2350 fps=304 q=28.0 size=    2816KiB time=00:01:33.92 bitrate= 245.6kbits/s speed=12.1x    frame= 2500 fps=303 q=28.0 size=    2816KiB time=00:01:39.92 bitrate= 230.9kbits/s speed=12.1x    frame= 2663 fps=304 q=28.0 size=    3072KiB time=00:01:46.44 bitrate= 236.4kbits/s speed=12.1x    frame= 2833 fps=305 q=28.0 size=    3328KiB time=00:01:53.24 bitrate= 240.8kbits/s speed=12.2x    frame= 3000 fps=306 q=28.0 size=    3328KiB time=00:01:59.92 bitrate= 227.3kbits/s speed=12.2x    frame= 3159 fps=306 q=28.0 size=    3584KiB time=00:02:06.15 bitrate= 232.7kbits/s speed=12.2x    frame= 3321 fps=306 q=28.0 size=    3840KiB time=00:02:12.76 bitrate= 237.0kbits/s speed=12.3x    [out#0/mp4 @ 000001a6cfd2e9c0] video:725KiB audio:3283KiB subtitle:0KiB other streams:0KiB global headers:0KiB muxing overhead: 2.774344%
frame= 3381 fps=309 q=-1.0 Lsize=    4119KiB time=00:02:13.38 bitrate= 253.0kbits/s speed=12.2x    
[libx264 @ 000001a6d0189400] frame I:14    Avg QP: 9.18  size: 36352
[libx264 @ 000001a6d0189400] frame P:852   Avg QP:13.20  size:   167
[libx264 @ 000001a6d0189400] frame B:2515  Avg QP:21.33  size:    36
[libx264 @ 000001a6d0189400] consecutive B-frames:  0.8%  0.1%  0.0% 99.1%
[libx264 @ 000001a6d0189400] mb I  I16..4: 42.3% 57.2%  0.5%
[libx264 @ 000001a6d0189400] mb P  I16..4:  0.0%  0.0%  0.0%  P16..4:  2.1%  0.0%  0.0%  0.0%  0.0%    skip:97.9%
[libx264 @ 000001a6d0189400] mb B  I16..4:  0.0%  0.0%  0.0%  B16..8:  0.0%  0.0%  0.0%  direct: 0.0%  skip:100.0%  L0: 5.0% L1:95.0% BI: 0.0%
[libx264 @ 000001a6d0189400] 8x8 transform intra:57.2% inter:99.7%
[libx264 @ 000001a6d0189400] coded y,uvDC,uvAC intra: 47.5% 44.1% 33.0% inter: 0.0% 0.5% 0.0%
[libx264 @ 000001a6d0189400] i16 v,h,dc,p: 97%  3%  0%  0%
[libx264 @ 000001a6d0189400] i8 v,h,dc,ddl,ddr,vr,hd,vl,hu: 14% 51% 26%  1%  1%  1%  2%  1%  4%
[libx264 @ 000001a6d0189400] i4 v,h,dc,ddl,ddr,vr,hd,vl,hu: 23% 49% 10%  1%  4%  3%  6%  1%  2%
[libx264 @ 000001a6d0189400] i8c dc,h,v,p: 58% 32%  4%  5%
[libx264 @ 000001a6d0189400] Weighted P-Frames: Y:0.0% UV:0.0%
[libx264 @ 000001a6d0189400] ref P L0: 100.0%  0.0%  0.0%  0.0%
[libx264 @ 000001a6d0189400] ref B L0: 85.7% 14.3%
[libx264 @ 000001a6d0189400] ref B L1: 66.7% 33.3%
[libx264 @ 000001a6d0189400] kb/s:43.87
[aac @ 000001a6cfd2a280] Qavg: 614.446
